<svg width="512" height="512" viewBox="0 0 512 512" fill="none" xmlns="http://www.w3.org/2000/svg">
<rect x="28" y="196" width="456" height="118" fill="#FFA0A0"/>
<path fill-rule="evenodd" clip-rule="evenodd" d="M46 0C20.5949 0 0 20.5949 0 46V466C0 491.405 20.5949 512 46 512H466C491.405 512 512 491.405 512 466V46C512 20.5949 491.405 0 466 0H46ZM75 53C60.0883 53 48 65.0883 48 80V432C48 446.912 60.0883 459 75 459H446C460.912 459 473 446.912 473 432V80C473 65.0883 460.912 53 446 53H75Z" fill="#7600FF"/>
</svg>
