<svg width="512" height="512" viewBox="0 0 512 512" fill="none" xmlns="http://www.w3.org/2000/svg">
<path fill-rule="evenodd" clip-rule="evenodd" d="M191 14C184.373 14 179 19.3726 179 26V59C179 65.6274 184.373 71 191 71H309C315.627 71 321 65.6274 321 59V26C321 19.3726 315.627 14 309 14H191ZM209.258 27.8184C202.63 27.8184 197.258 33.1909 197.258 39.8184V48.6365C197.258 55.264 202.63 60.6365 209.258 60.6365H290.743C297.371 60.6365 302.743 55.264 302.743 48.6365V39.8184C302.743 33.1909 297.371 27.8184 290.743 27.8184H209.258Z" fill="#FFA0A0"/>
<path fill-rule="evenodd" clip-rule="evenodd" d="M79 88V473.041C79 494.557 93.2394 512 110.805 512H401.195C418.761 512 433 494.557 433 473.041V88H79ZM112.188 124.128V444.245C112.188 456.874 120.545 467.112 130.855 467.112H387.367C397.677 467.112 406.035 456.874 406.035 444.245V124.128L112.188 124.128Z" fill="#7600FF"/>
<line x1="167.5" y1="403.5" x2="167.5" y2="181.5" stroke="#FFA0A0" stroke-width="41" stroke-linecap="round"/>
<line x1="263.5" y1="403.5" x2="263.5" y2="181.5" stroke="#FFA0A0" stroke-width="41" stroke-linecap="round"/>
<line x1="354.5" y1="403.5" x2="354.5" y2="181.5" stroke="#FFA0A0" stroke-width="41" stroke-linecap="round"/>
<rect x="51" y="53" width="410" height="76" rx="12" fill="#7600FF"/>
<rect x="51" y="53" width="410" height="76" rx="12" fill="#7600FF"/>
<rect x="51" y="53" width="410" height="76" rx="12" fill="#7600FF"/>
<rect x="74" y="78" width="364" height="24" rx="12" fill="#7600FF"/>
<rect x="74" y="78" width="364" height="24" rx="12" fill="#7600FF"/>
<rect x="74" y="78" width="364" height="24" rx="12" fill="#FFA0A0"/>
<path fill-rule="evenodd" clip-rule="evenodd" d="M191 0C184.373 0 179 5.37258 179 12V54C179 60.6274 184.373 66 191 66H321C327.627 66 333 60.6274 333 54V12C333 5.37258 327.627 0 321 0H191ZM210.8 16C204.173 16 198.8 21.3726 198.8 28V42C198.8 48.6274 204.173 54 210.8 54H301.2C307.827 54 313.2 48.6274 313.2 42V28C313.2 21.3726 307.827 16 301.2 16H210.8Z" fill="#7600FF"/>
</svg>
