<svg width="512" height="514" viewBox="0 0 512 514" fill="none" xmlns="http://www.w3.org/2000/svg">
<path fill-rule="evenodd" clip-rule="evenodd" d="M0 46C0 20.5949 20.5949 0 46 0H327.114C352.519 0 373.114 20.5949 373.114 46V140H330V78C330 63.0883 317.912 51 303 51H75C60.0883 51 48 63.0883 48 78V293C48 307.912 60.0883 320 75 320H138V373.114H46C20.5949 373.114 0 352.519 0 327.114V46Z" fill="#FFA0A0"/>
<path d="M434.5 179H471V487H198.5C198.5 487 204 381.5 320 354C436 326.5 434.5 179 434.5 179Z" fill="#FFA0A0"/>
<path fill-rule="evenodd" clip-rule="evenodd" d="M183.886 139.918C158.481 139.918 137.886 160.513 137.886 185.918V467.032C137.886 492.437 158.481 513.032 183.886 513.032H465C490.405 513.032 511 492.437 511 467.032V185.918C511 160.513 490.405 139.918 465 139.918H183.886ZM214 192C199.088 192 187 204.088 187 219V434C187 448.912 199.088 461 214 461H442C456.912 461 469 448.912 469 434V219C469 204.088 456.912 192 442 192H214Z" fill="#7600FF"/>
</svg>
