<svg width="512" height="512" viewBox="0 0 512 512" fill="none" xmlns="http://www.w3.org/2000/svg">
<path fill-rule="evenodd" clip-rule="evenodd" d="M115 160C115 134.595 135.595 114 161 114H274.841C300.247 114 320.842 134.595 320.842 160V191.235H297.056V169.136C297.056 154.224 284.968 142.136 270.056 142.136H168.481C153.569 142.136 141.481 154.224 141.481 169.136V263.539C141.481 278.451 153.569 290.539 168.481 290.539H191.133V319.842H161C135.595 319.842 115 299.247 115 273.842V160Z" fill="#FFA0A0"/>
<path d="M354.709 212.752H374.846V382.671H224.512C224.512 382.671 227.546 324.468 291.541 309.297C355.537 294.125 354.709 212.752 354.709 212.752Z" fill="#FFA0A0"/>
<path fill-rule="evenodd" clip-rule="evenodd" d="M237.071 191.189C211.666 191.189 191.071 211.784 191.071 237.19V351.031C191.071 376.436 211.666 397.031 237.071 397.031H350.913C376.318 397.031 396.913 376.436 396.913 351.031V237.189C396.913 211.784 376.318 191.189 350.913 191.189H237.071ZM245.167 219.922C230.255 219.922 218.167 232.01 218.167 246.922V341.325C218.167 356.237 230.255 368.325 245.167 368.325H346.742C361.654 368.325 373.742 356.237 373.742 341.325V246.922C373.742 232.01 361.654 219.922 346.742 219.922H245.167Z" fill="#7600FF"/>
<circle cx="256" cy="256" r="236" stroke="#7600FF" stroke-width="40"/>
</svg>
