<svg width="512" height="512" viewBox="0 0 512 512" fill="none" xmlns="http://www.w3.org/2000/svg">
<path d="M487.809 455.915C487.049 462.872 486.289 469.227 485.697 474H29.8657L32.3283 405.456C36.6744 401.494 40.9849 396.001 45.1094 390.134C50.9064 381.889 57.2866 371.479 63.9855 359.933C71.6371 346.745 79.9901 331.564 88.5372 316.031C94.8275 304.599 101.223 292.976 107.521 281.816C122.637 255.031 137.383 230.557 150.165 214.715C156.663 206.663 161.924 201.783 165.772 199.64C167.333 198.77 168.177 198.629 168.437 198.607C168.488 198.645 168.565 198.705 168.665 198.799C176.08 205.741 183.501 215.069 191.31 225.633C193.892 229.125 196.542 232.791 199.235 236.516C204.453 243.732 209.832 251.172 215.19 258.014C223.378 268.468 232.258 278.524 241.988 285.83C251.793 293.193 263.202 298.308 276.14 297.479C297.224 296.128 311.279 283.404 320.767 274.815C321.917 273.775 323 272.795 324.02 271.903C329.417 267.184 332.28 265.496 334.302 265.16C335.104 265.027 337.569 264.708 342.929 270.067C350.486 277.623 362.021 288.803 375.73 302.091C409.935 335.247 457.678 381.524 490.94 417.35C490.639 427.801 489.251 442.713 487.809 455.915ZM168.356 198.555C168.356 198.555 168.358 198.556 168.363 198.559C168.358 198.557 168.356 198.555 168.356 198.555Z" stroke="#7600FF" stroke-width="20"/>
<path d="M361.621 492.019L361.62 492.019L361.619 492.019L361.405 492.006L361.189 492.002L73.3278 486.57L65.0263 479.333C67.1804 476.922 69.2755 474.283 71.301 471.552C76.4061 464.667 81.7607 456.225 87.2118 447.06C93.3408 436.756 99.941 424.921 106.598 412.984C111.583 404.047 116.6 395.051 121.475 386.597C133.228 366.218 144.468 348.408 154.452 337.584C159.53 332.078 163.37 329.411 165.888 328.525C166.972 328.143 167.487 328.208 167.658 328.241C167.801 328.269 168.296 328.384 169.165 329.197C176.783 336.329 184.921 345.785 193.735 356.351C195.309 358.238 196.903 360.16 198.516 362.103C205.786 370.863 213.423 380.066 221.185 388.548C230.66 398.902 240.779 408.703 251.37 415.787C261.944 422.858 273.854 427.8 286.64 426.98C306.636 425.699 319.763 415.843 328.548 409.247C329.869 408.255 331.092 407.337 332.225 406.533C336.982 403.157 339.171 402.398 340.665 402.393C341.737 402.39 344.664 402.808 350.429 408.572C376.084 434.223 381.934 439.589 435.736 486.736C434.873 487.088 433.867 487.45 432.704 487.811C425.577 490.026 415.479 491.347 404.63 492.021C393.942 492.685 383.178 492.687 375.036 492.518C370.978 492.434 367.6 492.308 365.247 492.203C364.07 492.151 363.151 492.104 362.532 492.071C362.223 492.054 361.988 492.041 361.835 492.032L361.665 492.022L361.627 492.02L361.621 492.019Z" stroke="#7600FF" stroke-width="20"/>
<path fill-rule="evenodd" clip-rule="evenodd" d="M46 0C20.5949 0 0 20.5949 0 46V466C0 491.405 20.5949 512 46 512H466C491.405 512 512 491.405 512 466V46C512 20.5949 491.405 0 466 0H46ZM75 53C60.0883 53 48 65.0883 48 80V432C48 446.912 60.0883 459 75 459H446C460.912 459 473 446.912 473 432V80C473 65.0883 460.912 53 446 53H75Z" fill="#FFA0A0"/>
<circle cx="364" cy="140" r="39" stroke="#7600FF" stroke-width="20"/>
</svg>
