<svg width="512" height="512" viewBox="0 0 512 512" fill="none" xmlns="http://www.w3.org/2000/svg">
<g clip-path="url(#clip0_25_238)">
<path d="M277.607 165.313L238.23 205.47C233.768 209.932 229.306 210.035 224.844 205.781L51.1451 39.8643" stroke="#BB50D0" stroke-width="2"/>
<path d="M345.624 233.798L305.157 272.553C300.591 276.808 300.435 281.217 304.69 285.783L472.319 461.505" stroke="#BB50D0" stroke-width="2"/>
<path d="M278 165.479L238.573 205.579C234.105 210.034 229.638 210.138 225.17 205.89L51.2531 40.2071C45.0195 27.7732 51.7206 15.9091 71.3564 4.61489C93.9532 -8.44077 114.68 3.06066 132.757 20.7791C181.068 68.2353 229.482 116.469 278 165.479Z" fill="#FFA0A0"/>
<path d="M51.2188 39L225.168 205.069C229.637 209.328 234.105 209.224 238.573 204.758L278.008 164.565C313.962 132.161 349.136 98.0435 383.531 62.2123C430.448 12.9835 502.147 77.4795 440.423 135.9C407.899 166.746 376.465 199.15 346.123 233.111L305.597 271.902C301.025 276.16 300.869 280.574 305.129 285.144L473 461.028C450.399 502.468 425.616 535.65 380.258 490.005C333.393 442.957 286.321 396.117 239.041 349.484C234.988 345.538 230.936 345.538 226.883 349.484C180.954 394.663 135.7 439.737 91.1212 484.708C31.1117 545.154 -33.1063 478.476 19.4215 426.288C67.0135 378.928 114.398 331.413 161.574 283.742C165.523 279.796 165.523 275.849 161.574 271.902C116.268 226.516 71.2739 181.338 26.5915 136.367C-16.1166 93.5256 -6.60855 57.6945 51.2188 39Z" fill="#7600FF"/>
<path d="M345.976 234C397.089 282.727 445.195 331.506 490.295 380.338C503.773 394.883 510.667 408.753 510.978 421.948C511.6 444.805 498.796 458.156 472.566 462L305.076 286.052C300.825 281.481 300.98 277.065 305.542 272.805L345.976 234Z" fill="#FFA0A0"/>
</g>
<defs>
<clipPath id="clip0_25_238">
<rect width="512" height="512" fill="white"/>
</clipPath>
</defs>
</svg>
