<svg width="512" height="512" viewBox="0 0 512 512" fill="none" xmlns="http://www.w3.org/2000/svg">
<path d="M104.945 269.863L208.85 366.934C213.761 371.587 216.217 370.51 216.217 363.702L215.958 297.136C218.198 192.009 218.5 111.138 216.863 54.5245C214.924 -12.688 294.921 -17.4705 294.791 59.9532C294.705 162.582 294.748 264.822 294.921 366.675C294.945 367.398 295.178 368.098 295.591 368.691C296.005 369.284 296.581 369.745 297.25 370.018C297.919 370.291 298.653 370.365 299.364 370.231C300.074 370.096 300.73 369.759 301.253 369.26C325.377 344.099 350.233 319.152 375.822 294.422C424.155 247.761 475.849 301.66 433.073 344.831C384.739 393.689 334.854 443.625 283.419 494.637C276.105 501.915 266.208 506 255.892 506C245.575 506 235.678 501.915 228.365 494.637C182.529 448.795 135.703 402.005 87.8865 354.267C52.2177 318.721 52.3469 288.088 104.945 269.863Z" fill="#7600FF"/>
<path d="M215.743 296.465L216 362.943C216 369.741 213.56 370.817 208.679 366.17L105.42 269.228C103.108 254.943 110.343 244.53 127.125 237.99C158.848 225.469 196.221 275.295 215.743 296.465Z" fill="#FFA0A0"/>
</svg>
