<svg width="512" height="512" viewBox="0 0 512 512" fill="none" xmlns="http://www.w3.org/2000/svg">
<path d="M172.871 210.916L230.044 264.32C232.747 266.88 234.098 266.288 234.098 262.543L233.956 225.92" stroke="#BB50D0" stroke-width="2"/>
<path d="M86.969 362.668L85.9023 400.783C85.8075 403.77 87.2534 405.263 90.2401 405.263L420.409 405.334C423.822 405.334 425.529 403.628 425.529 400.214L425.316 362.525" stroke="#BB50D0" stroke-width="2"/>
<path d="M172.871 210.916L230.044 264.32C232.747 266.88 234.098 266.287 234.098 262.542L233.956 225.92C235.188 168.083 235.354 123.591 234.453 92.4445C233.387 55.4667 277.405 52.8356 277.333 95.4311C277.286 151.893 277.31 208.142 277.405 264.178C277.418 264.575 277.546 264.96 277.774 265.287C278.001 265.613 278.318 265.867 278.686 266.017C279.055 266.167 279.458 266.208 279.849 266.134C280.24 266.06 280.601 265.875 280.889 265.6C294.163 251.757 307.84 238.033 321.92 224.427C348.516 198.756 376.96 228.409 353.422 252.16C326.827 279.04 299.378 306.513 271.076 334.578C267.051 338.582 261.606 340.829 255.929 340.829C250.252 340.829 244.807 338.582 240.782 334.578C215.562 309.357 189.796 283.615 163.485 257.351C143.858 237.796 143.929 220.942 172.871 210.916Z" fill="#7600FF"/>
<path d="M233.956 225.92L234.098 262.542C234.098 266.287 232.747 266.88 230.044 264.32L172.871 210.916C171.591 203.046 175.597 197.31 184.889 193.707C202.453 186.809 223.147 214.258 233.956 225.92Z" fill="#FFA0A0"/>
<path d="M86.9689 362.667L85.9022 400.782C85.8074 403.769 87.2533 405.262 90.24 405.262L420.409 405.333C423.822 405.333 425.529 403.627 425.529 400.213L425.316 362.525C426.927 337.825 427.496 312.842 427.022 287.573C426.24 244.267 470.258 249.671 470.116 280.889C469.831 330.951 469.452 379.71 468.978 427.165C468.94 432.704 466.714 438.003 462.783 441.906C458.853 445.81 453.539 448 448 448H64C58.3543 448 52.9389 445.762 48.9401 441.777C44.9414 437.792 42.6855 432.384 42.6667 426.738C42.477 378.43 42.8326 329.245 43.7333 279.182C44.3733 247.467 84.9778 249.173 84.8355 280.818C84.7407 307.935 85.4518 335.218 86.9689 362.667Z" fill="#7600FF"/>
<path d="M425.316 362.524L425.529 400.213C425.529 403.627 423.822 405.333 420.409 405.333L90.2401 405.262C87.2534 405.262 85.8075 403.769 85.9023 400.782L86.969 362.667L425.316 362.524Z" fill="#FFA0A0"/>
</svg>
