<svg width="514" height="512" viewBox="0 0 514 512" fill="none" xmlns="http://www.w3.org/2000/svg">
<rect x="30" y="391" width="456" height="78" fill="#F6ECEC"/>
<line x1="116.5" y1="406.5" x2="116.5" y2="384.5" stroke="#E8DCF6" stroke-width="49" stroke-linecap="round"/>
<line x1="257.5" y1="406.5" x2="257.5" y2="384.5" stroke="#E8DCF6" stroke-width="49" stroke-linecap="round"/>
<line x1="398.5" y1="406.5" x2="398.5" y2="384.5" stroke="#E8DCF6" stroke-width="49" stroke-linecap="round"/>
<rect x="20" y="312" width="474" height="177" rx="31" stroke="#E8DCF6" stroke-width="40"/>
<path d="M251.624 204.19L251.483 162.198C252.702 104.541 252.866 60.1885 251.976 29.1391C250.921 -7.72314 294.449 -10.346 294.379 32.1165C294.332 88.4023 294.449 200.336 294.449 200.336L251.624 204.19Z" fill="#F6ECEC"/>
<path fill-rule="evenodd" clip-rule="evenodd" d="M238.472 259.682C242.835 264.061 247.181 268.424 251.512 272.771C255.506 276.76 260.911 278.999 266.545 278.999C272.178 278.999 277.583 276.76 281.577 272.771C309.666 244.809 336.907 217.438 363.302 190.657C386.663 166.994 358.433 137.45 332.038 163.026C328.744 166.222 325.471 169.424 322.222 172.633L238.472 259.682Z" fill="#F6ECEC"/>
<path d="M163.964 146.621L220.848 199.953C223.537 202.51 224.881 201.918 224.881 198.178L224.739 161.605C225.966 103.846 226.131 59.4135 225.235 28.3087C224.173 -8.61937 267.969 -11.2469 267.898 31.2914C267.851 87.6777 267.874 143.851 267.969 199.811C267.982 200.208 268.11 200.593 268.336 200.919C268.562 201.245 268.878 201.498 269.244 201.648C269.61 201.798 270.012 201.839 270.401 201.765C270.79 201.691 271.149 201.506 271.436 201.232C284.643 187.407 298.251 173.701 312.259 160.114C338.721 134.477 367.021 164.09 343.602 187.81C317.141 214.654 289.831 242.089 261.672 270.117C257.668 274.115 252.25 276.36 246.602 276.36C240.954 276.36 235.536 274.115 231.532 270.117C206.438 244.93 180.803 219.222 154.625 192.994C135.097 173.465 135.168 156.634 163.964 146.621Z" fill="#E8DCF6"/>
</svg>
