<svg width="512" height="512" viewBox="0 0 512 512" fill="none" xmlns="http://www.w3.org/2000/svg">
<path d="M86.969 362.667L85.9023 400.782C85.8075 403.769 87.2534 405.262 90.2401 405.262L420.409 405.333C423.822 405.333 425.529 403.627 425.529 400.213L425.316 362.524" stroke="#BB50D0" stroke-width="2"/>
<path d="M86.9689 362.667L85.9022 400.782C85.8074 403.769 87.2533 405.262 90.24 405.262L420.409 405.333C423.822 405.333 425.529 403.627 425.529 400.213L425.316 362.525C426.927 337.825 427.496 312.842 427.022 287.573C426.24 244.267 470.258 249.671 470.116 280.889C469.831 330.951 469.452 379.71 468.978 427.165C468.94 432.704 466.714 438.003 462.783 441.906C458.853 445.81 453.539 448 448 448H64C58.3543 448 52.9389 445.762 48.9401 441.777C44.9414 437.792 42.6855 432.384 42.6667 426.738C42.477 378.43 42.8326 329.245 43.7333 279.182C44.3733 247.467 84.9778 249.173 84.8355 280.818C84.7407 307.935 85.4518 335.218 86.9689 362.667Z" fill="#7600FF"/>
<path d="M425.316 362.524L425.529 400.213C425.529 403.627 423.822 405.333 420.409 405.333L90.2401 405.262C87.2534 405.262 85.8075 403.769 85.9023 400.782L86.969 362.667L425.316 362.524Z" fill="#FFA0A0"/>
<line x1="163.5" y1="279.5" x2="347.5" y2="279.5" stroke="#7600FF" stroke-width="49" stroke-linecap="round"/>
<line x1="163.5" y1="41.5" x2="347.5" y2="41.5" stroke="#7600FF" stroke-width="49" stroke-linecap="round"/>
<line x1="163.5" y1="160.5" x2="347.5" y2="160.5" stroke="#7600FF" stroke-width="49" stroke-linecap="round"/>
</svg>
