<svg width="522" height="513" viewBox="0 0 522 513" fill="none" xmlns="http://www.w3.org/2000/svg">
<rect x="34" y="391" width="456" height="78" fill="#FFA0A0"/>
<line x1="120.5" y1="406.5" x2="120.5" y2="384.5" stroke="#7600FF" stroke-width="49" stroke-linecap="round"/>
<line x1="261.5" y1="406.5" x2="261.5" y2="384.5" stroke="#7600FF" stroke-width="49" stroke-linecap="round"/>
<line x1="402.5" y1="406.5" x2="402.5" y2="384.5" stroke="#7600FF" stroke-width="49" stroke-linecap="round"/>
<rect x="24" y="312" width="474" height="177" rx="31" stroke="#7600FF" stroke-width="47"/>
<path d="M255.624 204.19L255.483 162.198C256.702 104.541 256.866 60.1885 255.976 29.1391C254.921 -7.72314 298.449 -10.346 298.379 32.1165C298.332 88.4023 298.449 200.336 298.449 200.336L255.624 204.19Z" fill="#FFA0A0"/>
<path fill-rule="evenodd" clip-rule="evenodd" d="M242.472 259.682C246.835 264.061 251.181 268.424 255.512 272.771C259.506 276.76 264.911 278.999 270.545 278.999C276.178 278.999 281.583 276.76 285.577 272.771C313.666 244.809 340.907 217.438 367.302 190.657C390.663 166.994 362.433 137.45 336.038 163.026C332.744 166.222 329.471 169.424 326.222 172.633L242.472 259.682Z" fill="#FFA0A0"/>
<path d="M167.964 146.621L224.848 199.953C227.537 202.51 228.881 201.918 228.881 198.178L228.739 161.605C229.966 103.846 230.131 59.4135 229.235 28.3087C228.173 -8.61937 271.969 -11.2469 271.898 31.2914C271.851 87.6777 271.874 143.851 271.969 199.811C271.982 200.208 272.11 200.593 272.336 200.919C272.562 201.245 272.878 201.498 273.244 201.648C273.61 201.798 274.012 201.839 274.401 201.765C274.79 201.691 275.149 201.506 275.436 201.232C288.643 187.407 302.251 173.701 316.259 160.114C342.721 134.477 371.021 164.09 347.602 187.81C321.141 214.654 293.831 242.089 265.672 270.117C261.668 274.115 256.25 276.36 250.602 276.36C244.954 276.36 239.536 274.115 235.532 270.117C210.438 244.93 184.803 219.222 158.625 192.994C139.097 173.465 139.168 156.634 167.964 146.621Z" fill="#7600FF"/>
</svg>
