<svg width="512" height="512" viewBox="0 0 512 512" fill="none" xmlns="http://www.w3.org/2000/svg">
<path fill-rule="evenodd" clip-rule="evenodd" d="M343.64 128.488C338.462 106.98 319.097 91 296 91C268.938 91 247 112.938 247 140C247 163.146 263.049 182.544 284.625 187.673C304.292 167.939 323.963 148.211 343.64 128.488ZM344.651 145.882C341.981 168.196 324.316 185.901 302.022 188.634C316.229 174.38 330.438 160.13 344.651 145.882Z" fill="#7600FF"/>
<path fill-rule="evenodd" clip-rule="evenodd" d="M167.231 326.152L167.23 326.159L167.23 326.166C167.134 328.456 166.979 331.031 166.81 333.819L166.81 333.823C166.045 346.519 165.015 363.596 168.102 377.957C170.074 387.127 173.959 396.738 181.769 404.126C189.806 411.727 200.585 415.647 213.668 415.888C216.469 415.944 219.876 416.124 223.636 416.322C232.092 416.767 242.334 417.306 251.482 416.754C265.251 415.923 281.291 412.619 293.204 400.659L293.206 400.656C313.594 380.22 333.982 359.782 354.37 339.343C371.156 360.486 388.61 382.795 404 403.082V459H28.8792L26 400.586C36.4253 392.48 53.7533 353.297 72.5423 310.811C101.196 246.017 133.248 173.54 149.395 191.892C158.394 202.119 167.02 216.605 175.729 231.229C184.25 245.538 192.849 259.979 201.953 270.691C195.071 277.607 188.19 284.524 181.309 291.441L181.301 291.449C172.166 300.648 167.812 312.666 167.231 326.152ZM211.115 279.914C204.252 286.812 197.388 293.71 190.526 300.609C184.127 307.053 180.691 315.754 180.219 326.712C180.103 329.463 179.931 332.383 179.753 335.416L179.753 335.417C178.08 363.871 175.826 402.199 213.922 402.89C217.546 402.963 221.438 403.172 225.487 403.388C245.684 404.47 269.781 405.761 284.001 391.477C304.741 370.688 325.481 349.897 346.222 329.104C339.104 320.18 332.193 311.571 325.709 303.532L283.51 345.77L260.659 368.705C259.475 369.86 257.87 370.506 256.187 370.508H215.285C213.467 370.508 212.558 369.579 212.558 367.723L212.449 327.094C212.449 325.274 213.104 323.708 214.413 322.398L237.318 299.353L281.205 255.425C274.999 255.003 269.606 260.879 263.307 267.74C255.353 276.404 245.957 286.64 231.658 287.753C224.416 288.316 217.614 285.289 211.115 279.914ZM292.39 262.623L246.538 308.518L246.515 308.541L225.457 329.728L225.531 357.508H253.465L274.301 336.595L274.307 336.588L274.313 336.582L317.491 293.364C307.607 281.16 299.108 270.765 292.945 263.284C292.758 263.059 292.574 262.838 292.39 262.623Z" fill="#7600FF"/>
<path fill-rule="evenodd" clip-rule="evenodd" d="M38.0938 0C17.0552 0 0 20.5949 0 46V466C0 491.405 17.0552 512 38.0938 512H385.906C406.945 512 424 491.405 424 466V46C424 20.5949 406.945 0 385.906 0H38.0938ZM62.1094 53C49.7606 53 39.75 65.0883 39.75 80V432C39.75 446.912 49.7606 459 62.1094 459H369.344C381.692 459 391.703 446.912 391.703 432V80C391.703 65.0883 381.692 53 369.344 53H62.1094Z" fill="#7600FF"/>
<path d="M213.922 402.89C171.765 402.126 179.019 355.272 180.219 326.712C180.691 315.754 184.127 307.053 190.526 300.609C263.313 227.434 336.174 154.332 409.107 81.303C440.41 49.9579 480.44 106.204 499.746 126.519C519.324 147.106 510.98 163.925 492.874 182.055C423.25 251.881 353.625 321.688 284.001 391.477C266.931 408.624 235.627 403.327 213.922 402.89ZM237.318 299.353L214.413 322.398C213.104 323.708 212.449 325.274 212.449 327.094L212.558 367.723C212.558 369.579 213.467 370.508 215.285 370.508H256.187C257.87 370.506 259.475 369.86 260.659 368.705L283.51 345.77L424.868 204.28C426.576 202.533 426.576 200.804 424.868 199.093L383.638 157.918C381.966 156.207 380.293 156.207 378.621 157.918L237.318 299.353Z" fill="#FFA0A0"/>
<path d="M476.765 149.008L433.871 106.114C432.912 105.155 431.358 105.155 430.399 106.114L405.711 130.801C404.753 131.76 404.753 133.314 405.711 134.273L448.606 177.168C449.565 178.126 451.119 178.126 452.078 177.168L476.765 152.48C477.724 151.521 477.724 149.967 476.765 149.008Z" fill="#7600FF"/>
<path d="M382.707 152.918L428.77 200L259.882 369.366C258.7 370.537 257.1 371.193 255.422 371.194H214.635C212.822 371.194 211.915 370.252 211.915 368.369L211.807 327.158C211.807 325.312 212.459 323.724 213.764 322.395L382.707 152.918Z" fill="#7600FF"/>
</svg>
