<svg width="512" height="514" viewBox="0 0 512 514" fill="none" xmlns="http://www.w3.org/2000/svg">
<path fill-rule="evenodd" clip-rule="evenodd" d="M138 169.216C134.14 164.359 130.247 159.9 126.275 156.185C111.452 142.319 82.0293 197.079 55.7253 246.035C38.4773 278.135 22.5703 307.741 13 313.865L15.6431 358H138V169.216Z" fill="#7600FF"/>
<circle cx="271" cy="98" r="34" fill="#FFA0A0"/>
<path fill-rule="evenodd" clip-rule="evenodd" d="M0 46C0 20.5949 20.5949 0 46 0H327.114C352.519 0 373.114 20.5949 373.114 46V140H330V78C330 63.0883 317.912 51 303 51H75C60.0883 51 48 63.0883 48 78V293C48 307.912 60.0883 320 75 320H138V373.114H46C20.5949 373.114 0 352.519 0 327.114V46Z" fill="#FFA0A0"/>
<path d="M151 453.865C175.165 438.401 239.732 273.228 264.275 296.185C288.818 319.142 310.341 370.499 339.792 368.613C369.244 366.727 376.04 330.136 396.052 350.126C416.064 370.116 462.885 417.653 498 455.751C498 472.352 498 498 498 498H153.643L151 453.865Z" fill="#FFA0A0"/>
<circle cx="407" cy="256" r="34" fill="#7600FF"/>
<path fill-rule="evenodd" clip-rule="evenodd" d="M183.886 139.918C158.481 139.918 137.886 160.513 137.886 185.918V467.032C137.886 492.437 158.481 513.032 183.886 513.032H465C490.405 513.032 511 492.437 511 467.032V185.918C511 160.513 490.405 139.918 465 139.918H183.886ZM214 192C199.088 192 187 204.088 187 219V434C187 448.912 199.088 461 214 461H442C456.912 461 469 448.912 469 434V219C469 204.088 456.912 192 442 192H214Z" fill="#7600FF"/>
</svg>
