<svg width="512" height="512" viewBox="0 0 512 512" fill="none" xmlns="http://www.w3.org/2000/svg">
<path fill-rule="evenodd" clip-rule="evenodd" d="M341.898 228C341.901 222.415 341.926 216.98 341.951 211.676C342.023 196.396 342.089 182.21 341.587 168.693C340.888 149.883 339.16 137.268 336.699 129.772C330.098 109.668 319.902 97.4782 308.279 89.8678C296.226 81.9756 279.505 77 257.207 77C233.831 77 216.298 81.7409 203.694 89.5711C191.764 96.9825 181.196 109.007 174.26 129.903C171.839 137.199 170.108 149.648 169.41 168.461C168.91 181.933 168.977 196.107 169.05 211.432V211.432C169.075 216.806 169.101 222.323 169.104 228H126.104C126.101 222.822 126.077 217.626 126.052 212.445C125.877 175.688 125.705 139.691 133.449 116.358C153.039 57.3349 199.417 34 257.207 34C314.387 34 358.916 59.5957 377.553 116.358C385.293 139.931 385.122 176.094 384.949 212.676L384.949 212.688C384.925 217.795 384.901 222.91 384.898 228H341.898Z" fill="#FFA0A0"/>
<path d="M440 256L439.846 462.438C439.846 474.813 438.576 481 436.037 481L259.243 480.749C257.081 480.749 256 475.482 256 464.947L256.257 262.02L440 256Z" fill="#FFA0A0"/>
<path fill-rule="evenodd" clip-rule="evenodd" d="M97 220C71.5949 220 51 240.595 51 266V466C51 491.405 71.5949 512 97 512H415C440.405 512 461 491.405 461 466V266C461 240.595 440.405 220 415 220H97ZM112.434 263C97.5219 263 85.4336 275.088 85.4336 290V448C85.4336 462.912 97.5219 475 112.434 475H398.766C413.677 475 425.766 462.912 425.766 448V290C425.766 275.088 413.677 263 398.766 263H112.434Z" fill="#7600FF"/>
<path fill-rule="evenodd" clip-rule="evenodd" d="M362.5 220C362.503 213.914 362.533 207.985 362.561 202.196C362.645 185.486 362.722 169.94 362.139 155.137C361.331 134.578 359.33 120.592 356.385 112.122C348.627 89.8107 336.38 75.5269 321.477 66.3131C306.025 56.7597 284.948 51 257.725 51C229.423 51 207.433 56.4332 191.291 65.9022C175.935 74.9097 163.221 89.0615 155.067 112.259C152.166 120.514 150.162 134.322 149.355 154.883C148.775 169.638 148.853 185.171 148.937 201.929C148.967 207.796 148.997 213.813 149 220H106C105.997 214.342 105.968 208.664 105.939 203.002C105.737 162.834 105.538 123.498 114.5 98C137.171 33.5 190.845 8 257.725 8C323.899 8 375.432 35.9706 397 98C405.957 123.76 405.759 163.278 405.559 203.255V203.261C405.531 208.844 405.503 214.436 405.5 220H362.5Z" fill="#7600FF"/>
</svg>
