<svg width="512" height="512" viewBox="0 0 512 512" fill="none" xmlns="http://www.w3.org/2000/svg">
<path d="M71.2319 466.067C165.049 419.765 272.629 366.672 270.686 337.172C269.395 317.578 258.235 297.377 247.572 278.075C231.732 249.4 218.674 227.278 239 207.5C256.251 190.715 300 151.304 346.134 111.04C388 74.5 456.15 16.5 463.5 9.5C470.85 2.5 480 3 480 3C499.14 3 512 20.0955 512 38.7167V478.283C512 496.905 496.484 512 477.343 512H1.1322C-5.28597 498.888 15.2514 496.39 71.2319 466.067Z" fill="#FFA0A0"/>
<rect x="25.5176" y="43.002" width="123.753" height="96.8178" rx="24" fill="#7600FF"/>
<rect x="25.5176" y="43.002" width="123.753" height="96.8178" rx="24" fill="#7600FF"/>
<rect x="25.5176" y="207.592" width="123.753" height="96.8178" rx="24" fill="#7600FF"/>
<rect x="25.5176" y="372.184" width="123.753" height="96.8178" rx="24" fill="#7600FF"/>
<rect x="193.923" y="43.002" width="123.753" height="96.8178" rx="24" fill="#7600FF"/>
<rect x="193.923" y="43.002" width="123.753" height="96.8178" rx="24" fill="#7600FF"/>
<rect x="193.923" y="207.592" width="123.753" height="96.8178" rx="24" fill="#7600FF"/>
<rect x="193.923" y="372.184" width="123.753" height="96.8178" rx="24" fill="#7600FF"/>
<rect x="362.33" y="43.002" width="123.753" height="96.8178" rx="24" fill="#7600FF"/>
<rect x="362.33" y="43.002" width="123.753" height="96.8178" rx="24" fill="#7600FF"/>
<rect x="362.33" y="207.592" width="123.753" height="96.8178" rx="24" fill="#7600FF"/>
<rect x="362.33" y="372.184" width="123.753" height="96.8178" rx="24" fill="#7600FF"/>
</svg>
