<svg width="512" height="512" viewBox="0 0 512 512" fill="none" xmlns="http://www.w3.org/2000/svg">
<g clip-path="url(#clip0_110_8)">
<path d="M227.91 192.27L228.188 225.173C228.183 228.864 226.378 230.756 222.772 230.846L82.2698 234.253C74.5465 231.688 72.4104 224.007 75.8616 211.21C79.809 196.46 93.1427 192.643 107.952 192.495C147.574 192.141 187.56 192.066 227.91 192.27Z" fill="#FFA0A0"/>
<path d="M81.7256 233.77L222.4 230.51C226.01 230.423 227.816 228.532 227.817 224.836L227.503 191.892C228.972 163.61 229.409 134.943 228.815 105.888C227.858 66.1107 284.206 63.1304 282.839 112.837C282.144 139.055 282.546 165.466 284.043 192.07L283.325 224.886C283.195 228.539 284.957 230.429 288.61 230.557L430.83 233.873C438.624 260.368 442.099 284.35 404.449 284.231C365.595 284.155 326.741 284.251 287.887 284.519C284.577 284.563 282.901 286.239 282.857 289.549C282.546 327.242 282.472 364.613 282.634 401.662C282.815 451.497 228.66 450.48 228.801 407.156C228.897 367.872 228.843 328.61 228.638 289.37C228.639 286.103 227.006 284.47 223.739 284.471C186.218 284.438 148.911 284.362 111.82 284.243C76.4259 284.187 65.5354 265.429 81.7256 233.77Z" fill="#7600FF"/>
<path d="M284.366 192.491C325.673 191.504 365.757 191.783 404.619 193.327C416.213 193.768 424.804 196.654 430.391 201.985C440.105 211.184 440.332 222.005 431.07 234.448L288.98 230.948C285.33 230.816 283.567 228.925 283.692 225.275L284.366 192.491Z" fill="#FFA0A0"/>
<circle cx="256" cy="256" r="236" stroke="#7600FF" stroke-width="40"/>
</g>
<defs>
<clipPath id="clip0_110_8">
<rect width="512" height="512" fill="white"/>
</clipPath>
</defs>
</svg>
