<svg width="512" height="512" viewBox="0 0 512 512" fill="none" xmlns="http://www.w3.org/2000/svg">
<line x1="45.5" y1="423.5" x2="45.5" y2="210.5" stroke="#7600FF" stroke-width="49" stroke-linecap="round"/>
<line x1="25.5" y1="486.5" x2="486.5" y2="486.5" stroke="#FFA0A0" stroke-width="49" stroke-linecap="round"/>
<line x1="25.5" y1="486.5" x2="486.5" y2="486.5" stroke="#FFA0A0" stroke-width="49" stroke-linecap="round"/>
<line x1="172.5" y1="423.5" x2="172.5" y2="401.5" stroke="#7600FF" stroke-width="49" stroke-linecap="round"/>
<line x1="313.5" y1="423.5" x2="313.5" y2="401.5" stroke="#7600FF" stroke-width="49" stroke-linecap="round"/>
<line x1="454.5" y1="423.5" x2="454.5" y2="401.5" stroke="#7600FF" stroke-width="49" stroke-linecap="round"/>
<path d="M286.376 104.81L286.517 146.802C285.298 204.459 285.134 248.811 286.024 279.861C287.079 316.723 243.551 319.346 243.621 276.884C243.668 220.598 243.551 108.664 243.551 108.664L286.376 104.81Z" fill="#FFA0A0"/>
<path fill-rule="evenodd" clip-rule="evenodd" d="M299.528 49.3178C295.165 44.9392 290.819 40.5762 286.488 36.2288C282.494 32.2398 277.089 30.0005 271.455 30.0005C265.822 30.0005 260.417 32.2398 256.423 36.2288C228.334 64.1905 201.093 91.5618 174.698 118.343C151.337 142.006 179.567 171.55 205.962 145.974C209.257 142.778 212.529 139.576 215.779 136.367L299.528 49.3178Z" fill="#FFA0A0"/>
<path d="M374.036 162.379L317.152 109.047C314.463 106.49 313.119 107.082 313.119 110.822L313.261 147.395C312.034 205.154 311.869 249.586 312.765 280.691C313.827 317.619 270.031 320.247 270.102 277.709C270.149 221.322 270.126 165.149 270.031 109.189C270.018 108.792 269.89 108.407 269.664 108.081C269.438 107.755 269.122 107.502 268.756 107.352C268.39 107.202 267.988 107.161 267.599 107.235C267.21 107.309 266.851 107.494 266.564 107.768C253.357 121.593 239.749 135.299 225.741 148.886C199.279 174.523 170.979 144.91 194.398 121.19C220.859 94.3465 248.169 66.9108 276.328 38.8833C280.332 34.8849 285.75 32.6404 291.398 32.6404C297.046 32.6404 302.464 34.8849 306.468 38.8833C331.562 64.0702 357.197 89.7778 383.375 116.006C402.903 135.535 402.832 152.366 374.036 162.379Z" fill="#7600FF"/>
</svg>
