<svg width="512" height="512" viewBox="0 0 512 512" fill="none" xmlns="http://www.w3.org/2000/svg">
<path d="M46.3526 326.018C46.3526 326.018 91.5443 487.071 244.78 487.071C398.017 487.071 438.534 371.071 438.534 371.071M438.534 371.071L438.533 487.071M438.534 371.071L407.367 350.357H309.711" stroke="#FFA0A0" stroke-width="45" stroke-linecap="round"/>
<path d="M77.0003 319.286C77.0003 319.286 121.672 456 255.169 456C388.667 456 451 319.286 451 319.286M451 319.286H332.567M451 319.286L451 435.286" stroke="#7600FF" stroke-width="45" stroke-linecap="round"/>
<path d="M470.647 186.982C470.647 186.982 425.456 25.9287 272.22 25.9287C118.983 25.9287 78.4663 141.929 78.4663 141.929M78.4663 141.929L78.4666 25.9287M78.4663 141.929L109.633 162.643H207.289" stroke="#7600FF" stroke-width="45" stroke-linecap="round"/>
<path d="M440 193.714C440 193.714 395.328 57 261.831 57C128.333 57 65.9995 193.714 65.9995 193.714M65.9995 193.714H184.433M65.9995 193.714L65.9998 77.7143" stroke="#FFA0A0" stroke-width="45" stroke-linecap="round"/>
</svg>
