<svg width="512" height="512" viewBox="0 0 512 512" fill="none" xmlns="http://www.w3.org/2000/svg">
<path d="M165.191 388.48C170.311 403.603 171.354 419.223 168.32 435.342C167.846 437.807 168.747 439.49 171.022 440.391L186.524 446.862C187.538 447.278 188.666 447.32 189.708 446.982C190.75 446.643 191.638 445.945 192.213 445.013C221.511 399.431 291.129 395.449 317.369 441.742C319.133 444.831 321.96 447.173 325.324 448.331C328.687 449.488 332.357 449.382 335.648 448.033C338.94 446.683 341.627 444.182 343.21 440.996C344.793 437.811 345.162 434.158 344.249 430.72C330.24 378.737 381.867 333.084 434.844 344.32C435.982 344.556 437.167 344.386 438.193 343.841C439.219 343.296 440.022 342.408 440.462 341.333L446.862 325.546C447.261 324.56 447.302 323.465 446.977 322.451C446.652 321.438 445.982 320.571 445.084 320C400.284 290.986 394.88 221.582 441.173 195.129C444.203 193.399 446.521 190.651 447.712 187.372C448.904 184.093 448.892 180.498 447.679 177.227C446.467 173.956 444.132 171.222 441.091 169.512C438.05 167.803 434.5 167.229 431.076 167.893C391.585 175.478 362.904 158.886 345.031 118.115" stroke="#BB50D0" stroke-width="2"/>
<path d="M236.729 339.341C274.56 346.239 308.693 332.586 328.533 298.879C351.218 260.195 342.116 202.453 295.68 180.906C289.09 177.872 282.761 174.956 276.693 172.159" stroke="#BB50D0" stroke-width="2"/>
<path d="M453.902 269.724C467.769 295.68 495.218 291.342 487.893 331.947C480.972 370.347 460.444 388.29 426.311 385.778C413.985 384.877 405.262 386.015 400.142 389.191C364.871 411.022 408.178 447.076 362.88 476.302C337.636 492.587 306.916 497.92 288.213 471.04C281.908 461.985 276.93 456.77 273.28 455.396C222.649 435.84 230.044 496.996 182.613 489.102C169.861 486.969 157.819 482.536 146.489 475.805C104.604 450.845 148.48 408.391 109.156 387.556C104.936 385.327 98.963 384.664 91.2356 385.564C50.4652 390.21 27.4252 370.607 22.1156 326.756C17.5644 289.138 56.6044 290.347 59.8044 261.618C64.9244 216.462 -0.711116 223.716 29.5822 159.431C42.1689 132.693 59.7333 119.253 90.3822 128C91.9755 128.47 93.6489 128.591 95.2889 128.356C114.584 125.559 125.535 114.655 128.142 95.6445C128.427 93.606 128.284 91.5674 127.716 89.5289C114.916 43.52 165.831 14.5067 203.449 25.1734C224 30.9334 227.2 55.68 247.68 59.3778C264.462 62.4119 278.234 55.443 288.996 38.4711C307.2 9.74226 360.249 24.5334 377.813 48C397.796 74.5245 367.858 107.947 404.551 125.227C409.244 127.455 416.901 127.692 427.52 125.938C448.616 122.43 465.114 130.465 477.013 150.044C496.024 181.239 493.511 206.625 469.476 226.204C454.542 238.364 444.587 252.16 453.902 269.724ZM165.191 388.48C170.311 403.603 171.354 419.224 168.32 435.342C167.846 437.807 168.747 439.49 171.022 440.391L186.524 446.862C187.538 447.278 188.666 447.321 189.708 446.982C190.75 446.643 191.638 445.946 192.213 445.013C221.511 399.431 291.129 395.449 317.369 441.742C319.133 444.831 321.96 447.173 325.324 448.331C328.687 449.489 332.357 449.383 335.648 448.033C338.94 446.684 341.627 444.183 343.21 440.997C344.793 437.811 345.162 434.158 344.249 430.72C330.24 378.738 381.867 333.084 434.844 344.32C435.982 344.556 437.167 344.387 438.193 343.841C439.219 343.296 440.022 342.409 440.462 341.333L446.862 325.547C447.261 324.56 447.302 323.465 446.977 322.452C446.652 321.438 445.982 320.571 445.084 320C400.284 290.987 394.88 221.582 441.173 195.129C444.203 193.4 446.521 190.651 447.712 187.372C448.904 184.093 448.892 180.498 447.679 177.227C446.467 173.956 444.132 171.222 441.091 169.513C438.05 167.803 434.5 167.229 431.076 167.893C391.585 175.479 362.904 158.886 345.031 118.116C341.476 103.893 340.978 91.7097 343.538 81.5645C344.248 78.5978 343.955 75.4794 342.705 72.6969C341.454 69.9145 339.317 67.6249 336.627 66.1864C333.937 64.7479 330.846 64.2416 327.837 64.7467C324.829 65.2518 322.073 66.7397 320 68.9778C277.286 115.769 234.524 115.674 191.716 68.6934C189.603 66.379 186.776 64.8398 183.685 64.3216C180.595 63.8035 177.42 64.3364 174.668 65.8351C171.917 67.3339 169.747 69.7119 168.506 72.5892C167.265 75.4664 167.024 78.6766 167.822 81.7067C181.333 133.191 129.707 178.844 77.2267 167.609C74.477 166.993 72.5807 167.988 71.5378 170.596L65.1378 186.24C64.1896 188.658 64.8059 190.578 66.9867 192C114.916 222.791 115.2 289.351 66.9156 320.142C66.005 320.702 65.3207 321.565 64.9826 322.579C64.6446 323.594 64.6743 324.694 65.0667 325.689L70.6844 339.556C71.9644 342.779 74.3348 344.13 77.7956 343.609C116.954 337.683 146.086 352.64 165.191 388.48Z" fill="#7600FF"/>
<path d="M345.031 118.115C362.904 158.886 391.585 175.478 431.076 167.893C434.5 167.229 438.05 167.803 441.091 169.512C444.132 171.222 446.467 173.956 447.679 177.227C448.892 180.498 448.904 184.093 447.712 187.372C446.521 190.651 444.203 193.399 441.173 195.129C394.88 221.582 400.284 290.986 445.084 320C445.982 320.571 446.652 321.438 446.977 322.451C447.302 323.465 447.261 324.56 446.862 325.546L440.462 341.333C440.022 342.408 439.219 343.296 438.193 343.841C437.167 344.386 435.982 344.556 434.844 344.32C381.867 333.084 330.24 378.737 344.249 430.72C345.162 434.158 344.793 437.811 343.21 440.996C341.627 444.182 338.94 446.683 335.648 448.033C332.357 449.382 328.687 449.488 325.324 448.331C321.96 447.173 319.133 444.831 317.369 441.742C291.129 395.449 221.511 399.431 192.213 445.013C191.638 445.945 190.75 446.643 189.708 446.982C188.666 447.32 187.538 447.278 186.524 446.862L171.022 440.391C168.747 439.49 167.846 437.807 168.32 435.342C171.354 419.223 170.311 403.603 165.191 388.48C199.23 389.854 223.076 373.475 236.729 339.342C274.56 346.24 308.693 332.586 328.533 298.88C351.218 260.195 342.116 202.453 295.68 180.906C289.09 177.872 282.761 174.957 276.693 172.16C290.299 139.923 313.079 121.908 345.031 118.115Z" fill="#FFA0A0"/>
<path d="M276.693 172.16C282.761 174.957 289.09 177.873 295.68 180.907C342.116 202.454 351.218 260.196 328.533 298.88C308.693 332.587 274.56 346.24 236.729 339.342C128.64 303.431 161.422 159.431 276.693 172.16ZM298.453 256C298.453 244.741 293.981 233.943 286.019 225.981C278.057 218.02 267.259 213.547 256 213.547C244.741 213.547 233.942 218.02 225.981 225.981C218.019 233.943 213.547 244.741 213.547 256C213.547 267.26 218.019 278.058 225.981 286.019C233.942 293.981 244.741 298.454 256 298.454C267.259 298.454 278.057 293.981 286.019 286.019C293.981 278.058 298.453 267.26 298.453 256Z" fill="#7600FF"/>
<path d="M256 276.907C267.546 276.907 276.907 267.547 276.907 256C276.907 244.454 267.546 235.094 256 235.094C244.454 235.094 235.093 244.454 235.093 256C235.093 267.547 244.454 276.907 256 276.907Z" fill="#FFA0A0"/>
</svg>
