<svg width="512" height="512" viewBox="0 0 512 512" fill="none" xmlns="http://www.w3.org/2000/svg">
<g clip-path="url(#clip0_94_8)">
<path d="M246.784 136.298L247.042 212.864C244.802 317.991 244.5 398.862 246.137 455.476C248.076 522.688 168.08 527.47 168.209 450.047C168.295 347.418 168.08 143.325 168.08 143.325L246.784 136.298Z" fill="#FFA0A0"/>
<path fill-rule="evenodd" clip-rule="evenodd" d="M270.515 35.2415C262.525 27.2535 254.566 19.2939 246.636 11.3627C239.322 4.08534 229.425 3.87584e-05 219.109 3.87584e-05C208.792 3.87584e-05 198.895 4.08534 191.582 11.3627C140.146 62.3753 90.2616 112.311 41.9278 161.169C-0.848862 204.34 50.845 258.239 99.1788 211.578C105.206 205.753 111.193 199.916 117.139 194.067L270.515 35.2415Z" fill="#FFA0A0"/>
<path d="M407.055 242.137L303.15 145.066C298.239 140.413 295.783 141.49 295.783 148.298L296.042 214.864C293.802 319.991 293.5 400.862 295.137 457.476C297.076 524.688 217.079 529.47 217.209 452.047C217.295 349.418 217.252 247.178 217.079 145.325C217.055 144.602 216.822 143.902 216.409 143.309C215.995 142.716 215.419 142.255 214.75 141.982C214.081 141.709 213.347 141.635 212.636 141.769C211.926 141.904 211.27 142.241 210.747 142.74C186.623 167.901 161.767 192.848 136.178 217.578C87.8446 264.239 36.1507 210.34 78.9274 167.169C127.261 118.311 177.146 68.3753 228.581 17.3627C235.895 10.0853 245.792 6 256.108 6C266.425 6 276.322 10.0853 283.635 17.3627C329.471 63.2051 376.297 109.995 424.114 157.733C459.782 193.279 459.653 223.912 407.055 242.137Z" fill="#7600FF"/>
</g>
<defs>
<clipPath id="clip0_94_8">
<rect width="512" height="512" fill="white" transform="matrix(-1 0 0 -1 512 512)"/>
</clipPath>
</defs>
</svg>
