<svg width="512" height="512" viewBox="0 0 512 512" fill="none" xmlns="http://www.w3.org/2000/svg">
<rect x="29" y="381" width="456" height="78" fill="#FFA0A0"/>
<path fill-rule="evenodd" clip-rule="evenodd" d="M46 0C20.5949 0 0 20.5949 0 46V466C0 491.405 20.5949 512 46 512H466C491.405 512 512 491.405 512 466V46C512 20.5949 491.405 0 466 0H46ZM75 53C60.0883 53 48 65.0883 48 80V432C48 446.912 60.0883 459 75 459H446C460.912 459 473 446.912 473 432V80C473 65.0883 460.912 53 446 53H75Z" fill="#7600FF"/>
<line x1="115.5" y1="167.5" x2="396.5" y2="167.5" stroke="#7600FF" stroke-width="49" stroke-linecap="round"/>
<line x1="115.5" y1="287.5" x2="283.5" y2="287.5" stroke="#7600FF" stroke-width="49" stroke-linecap="round"/>
</svg>
