<svg width="512" height="512" viewBox="0 0 512 512" fill="none" xmlns="http://www.w3.org/2000/svg">
<path fill-rule="evenodd" clip-rule="evenodd" d="M38.0938 0C17.0552 0 0 20.5949 0 46V466C0 491.405 17.0552 512 38.0938 512H385.906C406.945 512 424 491.405 424 466V46C424 20.5949 406.945 0 385.906 0H38.0938ZM62.1094 53C49.7606 53 39.75 65.0883 39.75 80V432C39.75 446.912 49.7606 459 62.1094 459H369.344C381.692 459 391.703 446.912 391.703 432V80C391.703 65.0883 381.692 53 369.344 53H62.1094Z" fill="#7600FF"/>
<path fill-rule="evenodd" clip-rule="evenodd" d="M335.006 143H115.5C101.969 143 91 153.969 91 167.5C91 181.031 101.969 192 115.5 192H286.006L335.006 143ZM215.006 263H115.5C101.969 263 91 273.969 91 287.5C91 301.031 101.969 312 115.5 312H166.006L215.006 263ZM115.5 379C101.969 379 91 389.969 91 403.5C91 417.031 101.969 428 115.5 428H174.5C188.031 428 199 417.031 199 403.5C199 389.969 188.031 379 174.5 379H115.5Z" fill="#7600FF"/>
<path d="M213.922 402.89C171.765 402.126 179.019 355.272 180.219 326.712C180.691 315.754 184.127 307.053 190.526 300.609C263.313 227.434 336.174 154.332 409.107 81.303C440.41 49.9579 480.44 106.204 499.746 126.519C519.324 147.106 510.98 163.925 492.874 182.055C423.25 251.881 353.625 321.688 284.001 391.477C266.931 408.624 235.627 403.327 213.922 402.89ZM237.318 299.353L214.413 322.398C213.104 323.708 212.449 325.274 212.449 327.094L212.558 367.723C212.558 369.579 213.467 370.508 215.285 370.508H256.187C257.87 370.506 259.475 369.86 260.659 368.705L283.51 345.77L424.868 204.28C426.576 202.533 426.576 200.804 424.868 199.093L383.638 157.918C381.966 156.207 380.293 156.207 378.621 157.918L237.318 299.353Z" fill="#FFA0A0"/>
<path d="M476.765 149.008L433.87 106.114C432.912 105.155 431.357 105.155 430.399 106.114L405.711 130.801C404.752 131.76 404.752 133.314 405.711 134.273L448.606 177.168C449.564 178.126 451.119 178.126 452.077 177.168L476.765 152.48C477.724 151.521 477.723 149.967 476.765 149.008Z" fill="#7600FF"/>
<path d="M382.707 152.918L428.769 200L259.881 369.366C258.7 370.537 257.1 371.193 255.422 371.194H214.634C212.821 371.194 211.915 370.252 211.915 368.369L211.806 327.158C211.806 325.312 212.459 323.724 213.764 322.395L382.707 152.918Z" fill="#7600FF"/>
</svg>
