<svg width="512" height="512" viewBox="0 0 512 512" fill="none" xmlns="http://www.w3.org/2000/svg">
<g clip-path="url(#clip0_115_157)">
<line x1="124.5" y1="368.5" x2="183.5" y2="368.5" stroke="#7600FF" stroke-width="49" stroke-linecap="round"/>
<circle cx="256" cy="256" r="236" stroke="#7600FF" stroke-width="40"/>
<path d="M223.922 367.89C181.765 367.126 189.019 320.272 190.219 291.712C190.691 280.754 194.127 272.053 200.526 265.609C273.313 192.434 346.174 119.332 419.107 46.303C450.41 14.9579 490.44 71.2043 509.746 91.5185C529.324 112.106 520.98 128.925 502.874 147.055C433.25 216.881 363.625 286.688 294.001 356.477C276.931 373.624 245.627 368.327 223.922 367.89ZM247.318 264.353L224.413 287.398C223.104 288.708 222.449 290.274 222.449 292.094L222.558 332.723C222.558 334.579 223.467 335.508 225.285 335.508H266.187C267.87 335.506 269.475 334.86 270.659 333.705L293.51 310.77L434.868 169.28C436.576 167.533 436.576 165.804 434.868 164.093L393.638 122.918C391.966 121.207 390.293 121.207 388.621 122.918L247.318 264.353Z" fill="#FFA0A0"/>
<path d="M486.765 114.009L443.871 71.1147C442.912 70.1561 441.358 70.1561 440.399 71.1147L415.711 95.8023C414.753 96.761 414.753 98.3153 415.711 99.274L458.606 142.169C459.565 143.127 461.119 143.127 462.078 142.169L486.765 117.481C487.724 116.522 487.724 114.968 486.765 114.009Z" fill="#7600FF"/>
<path d="M392.707 117.918L438.77 165L269.882 334.366C268.7 335.537 267.1 336.193 265.422 336.194H224.635C222.822 336.194 221.915 335.252 221.915 333.369L221.807 292.158C221.807 290.312 222.459 288.724 223.764 287.395L392.707 117.918Z" fill="#7600FF"/>
</g>
<defs>
<clipPath id="clip0_115_157">
<rect width="512" height="512" fill="white"/>
</clipPath>
</defs>
</svg>
