<svg width="512" height="512" viewBox="0 0 512 512" fill="none" xmlns="http://www.w3.org/2000/svg">
<g clip-path="url(#clip0_266_14)">
<path d="M69.0172 61.1233L98.8097 90.7169C138.717 132.348 169.963 163.826 192.548 185.152C219.36 210.471 190.435 243.105 160.459 213.03C120.692 173.197 41.4603 94.1305 41.4603 94.1305L69.0172 61.1233Z" fill="#FFA0A0"/>
<path fill-rule="evenodd" clip-rule="evenodd" d="M39.0783 12.5813C32.8971 12.5703 26.7383 12.5588 20.602 12.5469C14.9573 12.5504 9.5522 14.7887 5.56847 18.7724C1.58474 22.7561 -0.653517 28.1612 -0.656989 33.8059C-0.746788 73.4396 -0.655243 112.057 -0.382315 149.658C-0.167824 182.909 40.6845 183.838 41.2632 147.089C41.3329 142.499 41.3822 137.921 41.4112 133.354L39.0783 12.5813Z" fill="#FFA0A0"/>
<path d="M171.71 39.8446L93.7745 42.356C90.0656 42.4493 89.5335 43.8184 92.1782 46.463L118.139 72.224C158.114 113.933 189.416 145.468 212.044 166.829C238.906 192.191 209.796 225.016 179.767 194.887C139.929 154.983 100.192 115.279 60.5556 75.7757C60.2654 75.5045 59.9032 75.3227 59.5128 75.2523C59.1223 75.1818 58.7202 75.2257 58.355 75.3787C57.9898 75.5316 57.6769 75.7871 57.4542 76.1143C57.2315 76.4415 57.1085 76.8265 57.0998 77.2229C57.5364 96.3369 57.6058 115.651 57.3079 135.164C56.7249 172.003 15.7734 171.075 15.561 137.743C15.2904 100.051 15.2016 61.3397 15.2948 21.6097C15.2987 15.9513 17.5428 10.5329 21.5365 6.53917C25.5302 2.54545 30.9486 0.301318 36.6071 0.297393C72.1605 0.363562 108.466 0.4144 145.523 0.449951C173.14 0.451226 184.991 12.4024 171.71 39.8446Z" fill="#7600FF"/>
<path d="M442.607 59.1233L412.814 88.7169C372.907 130.348 341.661 161.826 319.076 183.152C292.264 208.471 321.189 241.105 351.165 211.03C390.932 171.197 470.164 92.1305 470.164 92.1305L442.607 59.1233Z" fill="#FFA0A0"/>
<path fill-rule="evenodd" clip-rule="evenodd" d="M472.546 10.5813C478.727 10.5703 484.886 10.5588 491.022 10.5469C496.667 10.5504 502.072 12.7887 506.056 16.7724C510.039 20.7561 512.278 26.1612 512.281 31.8059C512.371 71.4396 512.279 110.057 512.006 147.658C511.792 180.909 470.94 181.838 470.361 145.089C470.291 140.499 470.242 135.921 470.213 131.354L472.546 10.5813Z" fill="#FFA0A0"/>
<path d="M339.914 37.8446L417.85 40.356C421.558 40.4493 422.09 41.8184 419.446 44.463L393.485 70.224C353.51 111.933 322.208 143.468 299.58 164.829C272.718 190.191 301.828 223.016 331.857 192.887C371.695 152.983 411.432 113.279 451.068 73.7757C451.359 73.5045 451.721 73.3227 452.111 73.2523C452.502 73.1818 452.904 73.2257 453.269 73.3787C453.634 73.5316 453.947 73.7871 454.17 74.1143C454.392 74.4415 454.516 74.8265 454.524 75.2229C454.088 94.3369 454.018 113.651 454.316 133.164C454.899 170.003 495.851 169.075 496.063 135.743C496.334 98.0509 496.422 59.3397 496.329 19.6098C496.325 13.9513 494.081 8.5329 490.087 4.53918C486.094 0.545463 480.675 -1.69867 475.017 -1.7026C439.463 -1.63643 403.158 -1.58559 366.101 -1.55004C338.484 -1.54876 326.633 10.4024 339.914 37.8446Z" fill="#7600FF"/>
<path d="M451.503 442.607L421.909 412.814C380.278 372.907 348.8 341.661 327.474 319.076C302.155 292.264 269.521 321.189 299.596 351.165C339.429 390.932 418.495 470.164 418.495 470.164L451.503 442.607Z" fill="#FFA0A0"/>
<path fill-rule="evenodd" clip-rule="evenodd" d="M500.043 472.548C500.054 478.729 500.065 484.888 500.077 491.024C500.074 496.669 497.835 502.074 493.852 506.058C489.868 510.041 484.463 512.279 478.818 512.283C439.184 512.373 400.567 512.281 362.966 512.008C329.715 511.794 328.786 470.942 365.535 470.363C370.125 470.293 374.703 470.244 379.27 470.215L500.043 472.548Z" fill="#FFA0A0"/>
<path d="M472.78 339.914L470.269 417.85C470.176 421.558 468.807 422.09 466.162 419.446L440.401 393.485C398.692 353.51 367.157 322.208 345.796 299.58C320.434 272.718 287.609 301.828 317.738 331.857C357.642 371.695 397.346 411.432 436.849 451.068C437.12 451.359 437.302 451.721 437.373 452.111C437.443 452.502 437.399 452.904 437.246 453.269C437.093 453.634 436.838 453.947 436.511 454.17C436.184 454.392 435.798 454.516 435.402 454.524C416.288 454.088 396.974 454.018 377.461 454.316C340.622 454.899 341.55 495.851 374.882 496.063C412.574 496.334 451.285 496.422 491.015 496.329C496.674 496.325 502.092 494.081 506.086 490.088C510.08 486.094 512.324 480.675 512.328 475.017C512.261 439.463 512.211 403.158 512.175 366.101C512.174 338.484 500.223 326.633 472.78 339.914Z" fill="#7600FF"/>
<path d="M60.1223 442.607L89.7159 412.814C131.347 372.907 162.825 341.661 184.151 319.076C209.47 292.264 242.104 321.189 212.029 351.165C172.196 390.932 93.1296 470.164 93.1296 470.164L60.1223 442.607Z" fill="#FFA0A0"/>
<path fill-rule="evenodd" clip-rule="evenodd" d="M11.5822 472.548C11.5712 478.729 11.5598 484.888 11.5479 491.024C11.5514 496.669 13.7896 502.074 17.7734 506.057C21.7571 510.041 27.1622 512.279 32.8069 512.283C72.4406 512.373 111.058 512.281 148.659 512.008C181.91 511.794 182.839 470.941 146.09 470.363C141.5 470.293 136.922 470.244 132.355 470.215L11.5822 472.548Z" fill="#FFA0A0"/>
<path d="M38.8446 339.914L41.356 417.85C41.4493 421.558 42.8184 422.09 45.463 419.446L71.224 393.485C112.933 353.51 144.468 322.208 165.829 299.58C191.191 272.718 224.016 301.828 193.887 331.857C153.983 371.695 114.279 411.432 74.7757 451.068C74.5045 451.359 74.3227 451.721 74.2523 452.111C74.1818 452.502 74.2257 452.904 74.3787 453.269C74.5316 453.634 74.7871 453.947 75.1143 454.17C75.4415 454.392 75.8265 454.516 76.2229 454.524C95.3369 454.088 114.651 454.018 134.164 454.316C171.003 454.899 170.075 495.851 136.743 496.063C99.0509 496.334 60.3397 496.422 20.6098 496.329C14.9513 496.325 9.5329 494.081 5.53918 490.087C1.54546 486.094 -0.698671 480.675 -0.702597 475.017C-0.636428 439.463 -0.58559 403.158 -0.550038 366.101C-0.548764 338.484 11.4024 326.633 38.8446 339.914Z" fill="#7600FF"/>
</g>
<defs>
<clipPath id="clip0_266_14">
<rect width="512" height="512" fill="white"/>
</clipPath>
</defs>
</svg>
