<svg width="420" height="420" viewBox="0 0 420 420" fill="none" xmlns="http://www.w3.org/2000/svg">
<path fill-rule="evenodd" clip-rule="evenodd" d="M335 187H85C82.7909 187 81 188.791 81 191V229C81 231.209 82.7909 233 85 233H335C337.209 233 339 231.209 339 229V191C339 188.791 337.209 187 335 187ZM85 171C73.9543 171 65 179.954 65 191V229C65 240.046 73.9543 249 85 249H335C346.046 249 355 240.046 355 229V191C355 179.954 346.046 171 335 171H85Z" fill="black"/>
<path fill-rule="evenodd" clip-rule="evenodd" d="M242 187H85C82.7909 187 81 188.791 81 191V229C81 231.209 82.7909 233 85 233H242V187ZM85 171C73.9543 171 65 179.954 65 191V229C65 240.046 73.9543 249 85 249H258V171H85Z" fill="black"/>
<path fill-rule="evenodd" clip-rule="evenodd" d="M165 27H85C82.7909 27 81 28.7909 81 31V111C81 113.209 82.7909 115 85 115H165C167.209 115 169 113.209 169 111V31C169 28.7909 167.209 27 165 27ZM85 11C73.9543 11 65 19.9543 65 31V111C65 122.046 73.9543 131 85 131H165C176.046 131 185 122.046 185 111V31C185 19.9543 176.046 11 165 11H85Z" fill="black"/>
<path fill-rule="evenodd" clip-rule="evenodd" d="M117 27H85C82.7909 27 81 28.7909 81 31V111C81 113.209 82.7909 115 85 115H117V27ZM85 11C73.9543 11 65 19.9543 65 31V111C65 122.046 73.9543 131 85 131H133V11H85Z" fill="black"/>
<path fill-rule="evenodd" clip-rule="evenodd" d="M165 305H85C82.7909 305 81 306.791 81 309V389C81 391.209 82.7909 393 85 393H165C167.209 393 169 391.209 169 389V309C169 306.791 167.209 305 165 305ZM85 289C73.9543 289 65 297.954 65 309V389C65 400.046 73.9543 409 85 409H165C176.046 409 185 400.046 185 389V309C185 297.954 176.046 289 165 289H85Z" fill="black"/>
<path fill-rule="evenodd" clip-rule="evenodd" d="M117 305H85C82.7909 305 81 306.791 81 309V389C81 391.209 82.7909 393 85 393H117V305ZM85 289C73.9543 289 65 297.954 65 309V389C65 400.046 73.9543 409 85 409H133V289H85Z" fill="black"/>
<path fill-rule="evenodd" clip-rule="evenodd" d="M335 305H255C252.791 305 251 306.791 251 309V389C251 391.209 252.791 393 255 393H335C337.209 393 339 391.209 339 389V309C339 306.791 337.209 305 335 305ZM255 289C243.954 289 235 297.954 235 309V389C235 400.046 243.954 409 255 409H335C346.046 409 355 400.046 355 389V309C355 297.954 346.046 289 335 289H255Z" fill="black"/>
<path fill-rule="evenodd" clip-rule="evenodd" d="M287 305H255C252.791 305 251 306.791 251 309V389C251 391.209 252.791 393 255 393H287V305ZM255 289C243.954 289 235 297.954 235 309V389C235 400.046 243.954 409 255 409H303V289H255Z" fill="black"/>
</svg>
