<?xml version="1.0" standalone="no"?>
<!DOCTYPE svg PUBLIC "-//W3C//DTD SVG 20010904//EN"
 "http://www.w3.org/TR/2001/REC-SVG-20010904/DTD/svg10.dtd">
<svg version="1.0" xmlns="http://www.w3.org/2000/svg"
 width="512.000000pt" height="512.000000pt" viewBox="0 0 512.000000 512.000000"
 preserveAspectRatio="xMidYMid meet">
<metadata>
Created by potrace 1.14, written by Peter Selinger 2001-2017
</metadata>
<g transform="translate(0.000000,512.000000) scale(0.100000,-0.100000)"
fill="#000000" stroke="none">
<path d="M3011 3879 l-744 -740 -36 5 c-20 4 -53 9 -75 12 -21 3 -47 7 -57 9
-10 2 -49 7 -86 10 -37 4 -70 9 -73 10 -10 6 -204 18 -285 17 -151 -1 -212
-26 -308 -126 -99 -102 -164 -214 -362 -626 -145 -301 -246 -466 -362 -586
-128 -134 -130 -237 -4 -314 22 -14 39 -27 38 -30 -1 -3 -78 -142 -170 -308
-150 -268 -176 -310 -233 -365 -35 -34 -64 -66 -64 -70 0 -4 11 -19 25 -33
l25 -25 70 71 c38 38 71 70 74 70 2 0 33 16 68 36 34 20 99 55 143 79 44 24
120 66 169 93 l90 50 55 -49 c62 -55 130 -85 217 -94 84 -9 135 -15 164 -20
14 -2 45 -7 70 -10 47 -5 137 -20 180 -30 14 -3 39 -7 55 -11 23 -4 35 -15 49
-45 11 -22 30 -50 42 -62 38 -38 212 -89 349 -103 91 -9 115 -14 218 -44 259
-78 345 -89 657 -85 140 2 278 7 305 10 106 13 223 38 290 62 39 13 75 25 80
27 6 1 15 4 20 8 33 20 236 63 350 74 28 3 66 7 85 9 60 7 268 16 441 20 91 2
184 8 206 14 48 13 116 60 140 98 10 16 20 30 24 33 3 3 18 34 32 70 39 100
76 258 92 395 3 28 8 64 10 80 13 99 19 325 18 643 -1 200 -3 365 -5 367 -2 2
-23 -1 -47 -6 -112 -25 -276 -13 -391 29 -30 11 -141 52 -247 90 -213 79 -758
260 -758 253 0 -2 -18 4 -40 13 -62 24 -435 123 -525 139 -14 3 -41 8 -60 12
-19 3 -43 7 -52 9 -10 1 -20 5 -23 8 -4 3 276 288 622 632 l628 625 -170 171
c-93 93 -172 170 -175 170 -3 0 -340 -334 -749 -741z"/>
</g>
</svg>
