<?xml version="1.0" standalone="no"?>
<!DOCTYPE svg PUBLIC "-//W3C//DTD SVG 20010904//EN"
 "http://www.w3.org/TR/2001/REC-SVG-20010904/DTD/svg10.dtd">
<svg version="1.0" xmlns="http://www.w3.org/2000/svg"
 width="3440.000000pt" height="3440.000000pt" viewBox="0 0 3440.000000 3440.000000"
 preserveAspectRatio="xMidYMid meet">
<metadata>
Created by potrace 1.14, written by Peter Selinger 2001-2017
</metadata>
<g transform="translate(0.000000,3440.000000) scale(0.100000,-0.100000)"
fill="#000000" stroke="none">
<path d="M29819 28356 c-2 -2 -35 -7 -74 -11 -83 -8 -192 -29 -295 -56 -230
-63 -401 -144 -680 -324 -159 -102 -346 -221 -362 -230 -11 -5 -78 -48 -151
-94 -73 -46 -163 -104 -202 -128 -38 -25 -104 -66 -145 -92 -41 -27 -181 -115
-310 -196 -416 -261 -531 -334 -725 -456 -331 -208 -669 -420 -690 -432 -10
-7 -41 -27 -67 -44 -26 -18 -50 -33 -54 -33 -3 0 -25 -13 -49 -30 -24 -16 -48
-30 -53 -30 -6 0 -12 -3 -14 -8 -2 -6 -451 -289 -573 -362 -14 -8 -122 -76
-240 -150 -118 -74 -226 -142 -239 -150 -13 -8 -48 -29 -78 -47 -29 -17 -96
-59 -148 -92 -89 -56 -174 -109 -429 -267 -57 -35 -107 -64 -111 -64 -5 0 -10
-4 -12 -8 -1 -4 -145 -95 -318 -202 -173 -106 -337 -208 -365 -225 -184 -118
-818 -505 -825 -505 -6 0 -10 -3 -10 -7 0 -5 -21 -20 -48 -35 l-47 -26 -260
145 c-351 196 -452 249 -570 296 -110 44 -289 92 -381 102 -32 4 -68 9 -79 11
-24 5 -288 5 -330 0 -16 -2 -52 -7 -80 -10 -27 -3 -60 -8 -71 -10 -12 -3 -38
-7 -57 -10 -45 -7 -211 -47 -337 -81 -52 -14 -147 -40 -210 -57 -63 -17 -162
-43 -220 -59 -58 -15 -116 -31 -130 -35 -62 -16 -400 -107 -450 -121 -30 -8
-62 -16 -70 -18 -8 -2 -67 -18 -130 -35 -63 -17 -137 -37 -165 -45 -74 -19
-433 -116 -648 -175 -103 -28 -195 -53 -205 -55 -19 -5 -163 -44 -297 -81 -49
-14 -139 -38 -200 -55 -60 -16 -117 -32 -125 -34 -8 -2 -42 -11 -75 -20 -33
-8 -67 -17 -75 -20 -16 -4 -124 -34 -150 -41 -47 -12 -311 -85 -340 -94 -19
-6 -143 -40 -275 -76 -132 -36 -265 -72 -295 -80 -30 -8 -63 -17 -74 -19 -18
-4 -210 -57 -365 -101 -46 -13 -93 -26 -105 -28 -19 -5 -241 -66 -361 -100
-27 -8 -126 -36 -220 -61 -93 -26 -242 -67 -330 -92 -88 -25 -167 -46 -175
-48 -17 -4 -23 -5 -400 -110 -151 -41 -295 -82 -320 -90 -25 -8 -56 -17 -70
-19 -14 -3 -50 -12 -80 -21 -30 -9 -62 -18 -70 -20 -8 -2 -53 -15 -100 -28
-47 -13 -94 -27 -105 -30 -11 -2 -103 -28 -205 -57 -102 -29 -198 -56 -215
-60 -31 -8 -75 -20 -555 -155 -151 -43 -304 -85 -340 -95 -36 -10 -155 -44
-265 -75 -110 -31 -254 -72 -320 -90 -357 -100 -465 -134 -640 -203 -260 -101
-587 -298 -880 -531 -38 -31 -72 -58 -75 -61 -3 -3 -30 -25 -60 -50 -30 -25
-75 -63 -100 -86 -25 -23 -63 -57 -85 -75 -97 -83 -446 -440 -600 -614 -38
-43 -414 -494 -450 -539 -16 -21 -37 -46 -45 -56 -8 -10 -27 -33 -42 -51 -14
-19 -35 -44 -45 -55 -10 -12 -30 -37 -45 -55 -14 -19 -63 -79 -108 -134 -45
-55 -127 -156 -183 -225 -136 -167 -131 -161 -142 -174 -6 -6 -57 -69 -115
-141 -57 -71 -107 -132 -110 -135 -3 -3 -31 -36 -62 -75 -31 -38 -96 -120
-146 -181 -50 -62 -98 -122 -109 -134 -10 -13 -30 -37 -46 -53 -15 -17 -27
-33 -27 -36 0 -3 -15 -22 -33 -42 -17 -20 -45 -54 -62 -74 -16 -21 -34 -43
-40 -49 -8 -9 -161 -198 -235 -290 -8 -11 -29 -35 -45 -55 -39 -46 -86 -105
-240 -296 -32 -40 -56 -71 -140 -174 -38 -48 -83 -104 -100 -125 -34 -44 -129
-161 -154 -191 -21 -25 -162 -201 -221 -275 -25 -31 -61 -77 -82 -101 -20 -24
-87 -107 -149 -184 -62 -77 -116 -142 -119 -145 -3 -3 -43 -52 -90 -110 -47
-58 -92 -114 -102 -125 -39 -48 -136 -165 -166 -203 -19 -22 -43 -51 -54 -64
-31 -37 -51 -61 -93 -113 -21 -28 -42 -52 -46 -55 -18 -15 -228 -287 -274
-355 -120 -179 -157 -298 -158 -505 -1 -203 25 -309 129 -525 32 -66 114 -191
163 -250 63 -73 190 -200 241 -238 30 -23 57 -45 60 -48 11 -12 129 -88 208
-134 l84 -48 -36 -21 c-20 -11 -122 -75 -226 -141 -105 -66 -203 -128 -218
-137 -15 -9 -41 -24 -58 -33 -49 -25 -87 -70 -86 -103 0 -21 -4 -28 -21 -29
-62 -5 -248 -126 -397 -260 -64 -57 -314 -304 -337 -334 -11 -13 -7 -15 28
-16 66 -1 164 -76 272 -208 l41 -50 -64 61 c-127 119 -215 163 -315 161 -105
-3 -138 -27 -362 -263 -186 -196 -348 -368 -404 -428 -35 -38 -75 -81 -89 -95
-14 -14 -70 -75 -125 -136 -55 -60 -111 -122 -125 -136 -14 -15 -40 -44 -59
-65 -18 -22 -66 -74 -105 -118 -134 -148 -140 -155 -287 -326 -106 -124 -251
-300 -324 -394 -16 -21 -35 -44 -40 -50 -11 -11 -326 -432 -357 -476 -10 -14
-42 -59 -71 -100 -227 -320 -296 -435 -358 -593 -72 -181 -59 -377 31 -498 71
-95 182 -172 295 -205 65 -18 234 -24 340 -11 387 48 861 137 1280 241 6 2 24
6 40 10 17 4 48 12 70 17 22 5 49 12 60 14 27 6 233 59 375 96 63 17 120 32
125 33 32 8 416 116 445 125 14 5 50 16 80 24 30 9 109 33 175 53 66 21 125
39 130 40 10 1 39 11 235 74 36 12 142 45 235 75 303 96 405 139 513 219 53
39 62 50 51 62 -9 12 -9 13 2 9 9 -3 19 6 28 25 13 31 13 31 40 14 105 -70
207 -74 336 -13 34 16 111 64 171 107 150 106 155 109 279 172 61 31 131 71
156 88 26 18 50 32 53 32 4 0 12 5 19 11 21 18 417 259 427 259 4 0 10 4 12 8
2 4 19 17 38 29 38 22 596 364 770 471 58 36 125 77 150 92 25 15 92 56 150
92 105 64 106 65 122 44 9 -12 56 -73 104 -137 206 -268 449 -583 584 -759 80
-103 156 -202 170 -220 32 -42 404 -525 435 -565 13 -16 104 -133 201 -260
392 -508 449 -575 584 -684 25 -20 58 -49 75 -64 101 -93 250 -159 460 -202
52 -11 241 -13 297 -3 29 5 60 11 68 12 136 25 326 120 467 232 l41 34 53 -73
c167 -226 244 -330 443 -597 122 -162 228 -304 237 -315 9 -11 52 -63 95 -115
96 -117 228 -249 320 -318 107 -81 345 -193 459 -216 11 -3 41 -9 66 -15 59
-13 160 -23 242 -24 456 -3 914 237 1214 636 37 48 69 87 72 87 3 0 33 4 66
10 33 5 114 12 180 15 200 8 479 21 650 30 50 3 144 7 210 10 142 6 278 13
395 20 47 3 132 7 190 10 58 3 148 7 200 10 52 3 138 7 190 10 52 3 138 7 190
11 52 3 131 7 175 9 192 10 285 15 350 20 39 3 117 7 175 10 58 3 116 7 130
10 14 3 41 7 60 9 55 7 180 37 216 52 19 8 35 14 36 13 6 -1 47 16 125 52 248
113 458 326 564 569 90 208 113 417 73 665 -18 111 -97 337 -138 395 -6 8 -17
26 -25 40 -38 70 -137 195 -234 296 -59 62 -104 115 -100 117 15 9 451 99 548
113 17 3 53 9 81 15 94 18 394 63 559 84 22 3 56 7 75 10 19 3 58 7 85 11 28
3 57 7 65 9 8 2 44 7 80 10 66 6 83 8 155 20 22 3 63 8 90 10 28 2 73 6 100
10 65 8 200 25 245 30 19 2 64 7 100 11 36 3 76 7 90 9 14 2 59 6 100 10 41 4
83 9 93 11 10 1 50 6 90 9 39 3 83 8 97 10 84 12 191 19 305 20 l130 0 170
-58 c93 -32 273 -95 400 -139 126 -44 311 -108 410 -143 270 -94 649 -232 700
-254 25 -11 138 -55 145 -57 3 0 16 -5 30 -11 46 -20 403 -160 590 -232 102
-39 194 -75 205 -80 11 -5 36 -14 55 -21 19 -7 49 -18 65 -25 61 -26 675 -259
835 -317 571 -207 1375 -451 1825 -553 33 -8 137 -32 230 -53 94 -22 188 -43
210 -48 22 -4 42 -8 45 -9 7 -2 108 -24 140 -30 48 -10 385 -74 415 -79 17 -3
73 -12 125 -21 52 -9 106 -18 120 -20 14 -2 84 -13 155 -24 72 -11 153 -23
180 -26 28 -4 61 -8 75 -10 45 -7 184 -24 245 -31 33 -3 67 -8 75 -9 8 -2 51
-6 95 -10 44 -4 87 -9 95 -10 8 -2 51 -6 95 -10 44 -3 94 -8 110 -10 17 -2 71
-6 120 -10 50 -3 108 -8 130 -10 22 -3 76 -7 120 -10 44 -2 112 -7 150 -10 39
-2 120 -7 180 -11 61 -3 139 -7 175 -9 36 -2 137 -7 225 -10 88 -3 207 -8 265
-10 153 -6 520 -14 870 -20 168 -3 406 -8 530 -10 124 -2 434 -7 690 -11 256
-3 525 -7 598 -8 122 -2 132 -1 132 16 0 16 11 23 33 19 4 0 6 2189 5 4865
l-3 4866 -30 26 c-19 18 -222 105 -570 246 -797 323 -1314 534 -1365 556 -25
10 -83 34 -130 54 -367 149 -821 336 -1180 483 -747 307 -885 364 -905 373
-11 5 -49 21 -85 36 -36 14 -78 32 -95 39 -16 7 -115 50 -220 95 -617 267
-1161 533 -2310 1130 -71 37 -211 109 -310 160 -99 51 -207 107 -240 125 -33
18 -114 61 -180 95 -66 35 -160 84 -210 110 -49 26 -148 78 -220 115 -71 37
-161 84 -200 105 -88 47 -201 107 -282 151 l-63 33 68 42 c37 23 92 57 122 76
30 19 98 61 150 93 52 32 106 65 120 74 14 9 33 20 43 26 9 5 148 91 307 190
160 99 310 191 333 204 23 13 68 41 100 63 32 21 60 38 63 38 3 0 35 20 72 44
37 23 168 105 292 181 124 76 299 184 390 240 391 242 559 345 618 382 35 21
83 50 105 64 23 14 132 82 242 149 110 68 245 151 300 185 92 57 480 297 1198
739 153 94 290 179 305 188 15 10 41 25 57 34 48 27 303 198 390 261 112 82
128 96 237 205 300 300 492 695 553 1133 17 120 13 364 -9 510 -63 420 -313
855 -646 1124 -25 20 -47 39 -50 42 -17 22 -222 149 -319 198 -110 55 -326
133 -401 146 -19 3 -48 10 -65 15 -16 5 -50 11 -75 14 -25 3 -56 9 -70 12 -27
6 -405 15 -411 10z m-9002 -17562 c-3 -3 -12 -4 -19 -1 -8 3 -5 6 6 6 11 1 17
-2 13 -5z m188 -25 c33 -6 65 -12 70 -13 6 -2 31 -6 58 -11 26 -4 49 -10 52
-14 2 -4 -55 3 -128 15 -73 13 -152 26 -177 29 -24 3 -47 9 -50 12 -6 7 96 -4
175 -18z m800 -149 c13 -6 15 -9 5 -9 -8 0 -22 4 -30 9 -18 12 -2 12 25 0z
m188 -31 c37 -6 66 -13 63 -16 -6 -6 -167 24 -175 33 -3 4 5 4 19 1 14 -3 56
-11 93 -18z m152 -29 c13 -5 14 -9 5 -9 -8 0 -24 4 -35 9 -13 5 -14 9 -5 9 8
0 24 -4 35 -9z"/>
</g>
</svg>
